<?xml version="1.0" encoding="utf-8"?>
<!-- Generator: Adobe Illustrator 24.3.0, SVG Export Plug-In . SVG Version: 6.00 Build 0)  -->
<svg version="1.1" id="Layer_1" xmlns="http://www.w3.org/2000/svg" xmlns:xlink="http://www.w3.org/1999/xlink" x="0px" y="0px"
	 viewBox="0 0 512 512" style="enable-background:new 0 0 512 512;" xml:space="preserve">
<style type="text/css">
	.st0{fill:#B7D94F;}
</style>
<path class="st0" d="M502.4,429.9l-52.2-84.5l4.7-38.8h6.6c11.8,0,21.4-9.3,21.4-20.7v-23.8c0-11.4-9.6-20.7-21.4-20.7h-29.3v-27.2
	c0-0.1,0-0.1,0-0.2c0-1.7-0.6-3.3-1.6-4.5c0,0,0,0,0,0l-25.9-31.6v-26.5c0-8.8-7.3-15.9-16.3-15.9h-30.2c-0.2-0.4-0.4-0.7-0.6-1.1
	c-3.7-6.8-14-15.5-30.4-25.8c-3.4-2.1-5.5-5.8-5.5-9.8V79.4c3.2-1.5,5.4-4.8,5.4-8.5V30.4c0-14-11.7-25.4-26.2-25.4h-28.5
	c-14.4,0-26.2,11.4-26.2,25.4v40.5c0,3.7,2.2,6.9,5.4,8.5v19.3c0,4-2,7.6-5.5,9.8c-2.7,1.7-5.8,3.7-8.9,5.8c0-0.6,0-1.1,0-1.7
	c0-21.4-17.9-38.8-40-38.8c-22.1,0-40,17.4-40,38.8c0,2.7,0.3,5.5,0.9,8.2c0.9,4.1,1.7,8,2.5,11.6c-9.1-3.1-19.7-1.7-27.7,4.6
	c-5.9,4.7-9.6,11.3-10.4,18.7c-0.8,7.4,1.5,14.6,6.3,20.3c1.3,1.5,2.7,2.9,4.3,4.2l22.3,17.5c-12.6,10.8-20.7,26.3-21.4,43.7H98.5
	l-1.6-2.9c0.2-0.1,0.5-0.2,0.7-0.4c24-12.4,44-32.7,35.8-47.6s-36.7-10.2-60.7,2.2c-0.2,0.1-0.5,0.2-0.7,0.4L62,174.7
	c0.2-0.1,0.5-0.2,0.7-0.4c11.9-6.2,22.3-13.9,29-21.7c11.2-12.9,9-21.8,6.8-25.9c-2.3-4.1-8.7-10.8-25.9-9
	c-10.5,1.1-22.8,5.1-34.8,11.2c-0.2,0.1-0.5,0.2-0.7,0.4l-7.6-13.8c-4.2-7.7-6.4-16-6.4-24.6c0-19.5,11-37.3,28.8-46.5
	c12.8-6.6,27.4-8,41.3-3.9c13.8,4.1,25.2,13.2,32,25.6l12.9,23.6c1.9,3.5,6.5,4.9,10.1,3c3.7-1.9,5-6.3,3.1-9.8l-12.9-23.6
	c-17.9-32.7-59.9-45.1-93.6-27.8C22.2,43.1,8.2,65.9,8.2,90.8c0,10.9,2.8,21.8,8.1,31.5l65.2,119H51c-11.8,0-21.4,9.3-21.4,20.7
	v23.8c0,11.4,9.6,20.7,21.4,20.7h6.6l4.7,38.8l-52.2,84.5c-3,4.8-3.8,10.5-2.4,15.9c1.4,5.4,4.9,10,9.9,12.9
	c2.5,1.5,5.2,2.4,8.1,2.8c1,0.1,2,0.2,3.1,0.2c7.5,0,14.6-3.8,18.5-10.2l23.4-37.8l1.7,14c0.4,3.7,3.7,6.4,7.4,6.4
	c0.3,0,0.6,0,0.9,0c4.1-0.5,7.1-4.1,6.6-8.1l-3.9-32.8l53.6-86.7h239l53.6,86.7l-9.4,78.1c-1.1,9.2-9.1,16.1-18.6,16.1H111.2
	c-9.5,0-17.5-6.9-18.6-16.1l-2-16.4c-0.5-4-4.2-6.9-8.3-6.4c-4.1,0.5-7.1,4.1-6.6,8.1l2,16.4c2,16.5,16.4,29,33.5,29h290.1
	c17.1,0,31.5-12.5,33.5-29l7.2-59.4l23.4,37.8c6.2,10,19.5,13.1,29.7,7.2C505.2,452.7,508.5,439.8,502.4,429.9z M79.8,205.5
	c24.2-12.5,39.3-10.2,40.4-8.2c1.1,2-5.5,15.5-29.6,27.9c-0.2,0.1-0.5,0.2-0.7,0.4l-10.8-19.7C79.3,205.8,79.6,205.7,79.8,205.5z
	 M44.8,141.7c10.1-5.2,20.8-8.7,29.3-9.6c7.5-0.8,10.7,0.8,11.1,1.4c0.4,0.6-0.2,4.1-5,9.7c-5.5,6.3-14.5,13-24.6,18.2
	c-0.2,0.1-0.5,0.2-0.7,0.4l-10.8-19.7C44.4,142,44.6,141.8,44.8,141.7z M437.5,324.9l-11.4-18.4h13.6L437.5,324.9z M285.5,241.3
	v-24.9l23.6-28.8h84.4l15.6,19h-34c-4.1,0-7.5,3.3-7.5,7.3s3.4,7.3,7.5,7.3h42v20.2H285.5z M389.7,151.2V173H313v-21.8
	c0-0.7,0.6-1.3,1.3-1.3H353c0.1,0,0.1,0,0.2,0s0.1,0,0.2,0h34.9C389.1,149.9,389.7,150.5,389.7,151.2z M272.5,19.6h28.5
	c6.2,0,11.2,4.9,11.2,10.8v35.4h-50.8V30.4C261.3,24.4,266.3,19.6,272.5,19.6z M254.4,120.7c7.7-4.8,12.3-13.1,12.3-22V80.4h40v18.3
	c0,8.9,4.6,17.2,12.3,22c10.4,6.5,16.6,11.3,20.2,14.7h-24.9c-9,0-16.3,7.1-16.3,15.9v26.5l-25.9,31.6c-1.1,1.3-1.6,2.9-1.6,4.5
	v27.4h-10c-0.7-17.4-8.8-32.9-21.4-43.7c2.5-2,5.5-4.3,9.1-7.1l13.3-10.4c1.6-1.2,3-2.6,4.3-4.1c4.8-5.8,7.1-13,6.3-20.4
	s-4.5-14-10.4-18.7c-5.9-4.7-13.4-6.9-21-6.1c-0.4,0-0.9,0.1-1.3,0.2C243.5,127.8,248.6,124.3,254.4,120.7z M228.3,158.4
	c2.1-2.8,3.9-12.1,13.9-13c3.6-0.4,7.2,0.7,10,2.9c2.8,2.2,4.6,5.4,4.9,8.9c0.5,4.5-1.4,8.9-5.1,11.7l-13.3,10.4
	c-5.4,4.2-9.4,7.3-12.6,9.8c-1.4-0.7-2.8-1.3-4.2-1.9L228.3,158.4z M197.4,88.3c13.8,0,25,10.9,25,24.3c0,1.7-0.2,3.5-0.6,5.2
	l-2.9,13.4c0,0.1,0,0.1,0,0.2l-11.3,51.8c-3.3-0.5-6.7-0.8-10.2-0.8c-3.5,0-6.9,0.3-10.2,0.8l-0.1-0.4c-2.6-12-5.4-24.8-14.1-65
	c-0.4-1.7-0.6-3.4-0.6-5.1C172.4,99.2,183.6,88.3,197.4,88.3z M140.7,166.9c-4.8-5.6-3.9-14,1.9-18.6c6.6-5.2,16.7-3.4,20.8,4.3
	l3.1,5.9c2.8,12.9,4.4,20.3,5.9,27.3l0.3,1.5c-1.4,0.6-2.8,1.2-4.2,1.9C141.3,167.6,142.2,168.7,140.7,166.9z M197.4,196.9
	c25.8,0,46.9,19.7,48.1,44.4h-96.2C150.6,216.6,171.7,196.9,197.4,196.9z M72.7,306.6h13.6l-11.4,18.4L72.7,306.6z M34.3,444
	c-1.4,2.2-4,3.4-6.6,3.1h0c-0.9-0.1-1.7-0.4-2.5-0.9c-1.5-0.9-2.6-2.3-3-4s-0.2-3.4,0.7-4.9l53.5-86.5c0,0,0,0,0,0l29.4-47.5
	c0.1-0.2,0.2-0.3,0.3-0.5l16.4-26.5c0.9-1.5,2.4-2.5,4.1-2.9c0.5-0.1,1.1-0.2,1.6-0.2c1.2,0,2.4,0.3,3.4,0.9
	c3.1,1.8,4.2,5.8,2.3,8.8l-7.7,12.4c-0.1,0.1-0.2,0.3-0.2,0.4L34.3,444z M145.8,292l1-1.6c3-4.8,3.8-10.5,2.4-15.9
	c-1.4-5.4-4.9-10-9.9-12.9c-5-2.9-10.8-3.7-16.4-2.4c-5.6,1.4-10.3,4.8-13.3,9.6L95.3,292H51c-3.5,0-6.4-2.8-6.4-6.2v-23.8
	c0-3.4,2.9-6.2,6.4-6.2h410.5c3.5,0,6.4,2.8,6.4,6.2v23.8c0,3.4-2.9,6.2-6.4,6.2h-44.3l-14.3-23.2c-3-4.8-7.7-8.2-13.3-9.6
	c-5.6-1.4-11.4-0.5-16.4,2.4c-5,2.9-8.5,7.5-9.9,12.9c-1.4,5.4-0.5,11.1,2.4,15.9l1,1.6H145.8z M484.8,447c-0.1,0-4.4,0.6-6.6-3.1
	c-5.6-9.1-94.3-152.5-99.5-161c-1.9-3-0.9-7,2.3-8.8c3.1-1.8,7.2-0.8,9.1,2.2c5.5,9,40.6,65.7,46,74.4c0,0,0,0,0,0.1l53.5,86.5
	C492,441.3,489.4,446.4,484.8,447z"/>
<path class="st0" d="M178.8,365.1v-24.1c0-10.7-9-19.4-20-19.4c-11,0-20,8.7-20,19.4v24.1c0,10.7,9,19.4,20,19.4
	C169.8,384.6,178.8,375.9,178.8,365.1z M153.7,365.1v-24.1c0-2.7,2.3-4.9,5-4.9s5,2.2,5,4.9v24.1c0,2.7-2.3,4.9-5,4.9
	S153.7,367.8,153.7,365.1z"/>
<path class="st0" d="M227.5,443.8v-24.1c0-10.7-9-19.4-20-19.4c-11,0-20,8.7-20,19.4v24.1c0,10.7,9,19.4,20,19.4
	C218.5,463.3,227.5,454.6,227.5,443.8z M202.5,443.8v-24.1c0-2.7,2.3-4.9,5-4.9c2.8,0,5,2.2,5,4.9v24.1c0,2.7-2.3,4.9-5,4.9
	C204.7,448.7,202.5,446.5,202.5,443.8z"/>
<path class="st0" d="M276.3,365.1v-24.1c0-10.7-9-19.4-20-19.4c-11,0-20,8.7-20,19.4v24.1c0,10.7,9,19.4,20,19.4
	C267.3,384.6,276.3,375.9,276.3,365.1z M251.2,365.1v-24.1c0-2.7,2.3-4.9,5-4.9c2.8,0,5,2.2,5,4.9v24.1c0,2.7-2.3,4.9-5,4.9
	C253.5,370,251.2,367.8,251.2,365.1z"/>
<path class="st0" d="M325,443.8v-24.1c0-10.7-9-19.4-20-19.4c-11,0-20,8.7-20,19.4v24.1c0,10.7,9,19.4,20,19.4
	C316,463.3,325,454.6,325,443.8z M300,443.8v-24.1c0-2.7,2.3-4.9,5-4.9c2.8,0,5,2.2,5,4.9v24.1c0,2.7-2.3,4.9-5,4.9
	C302.2,448.7,300,446.5,300,443.8z"/>
<path class="st0" d="M373.8,365.1v-24.1c0-10.7-9-19.4-20-19.4c-11,0-20,8.7-20,19.4v24.1c0,10.7,9,19.4,20,19.4
	C364.8,384.6,373.8,375.9,373.8,365.1z M348.7,365.1v-24.1c0-2.7,2.3-4.9,5-4.9s5,2.2,5,4.9v24.1c0,2.7-2.3,4.9-5,4.9
	S348.7,367.8,348.7,365.1z"/>
</svg>
