<?xml version="1.0" encoding="utf-8"?>
<!-- Generator: Adobe Illustrator 24.3.0, SVG Export Plug-In . SVG Version: 6.00 Build 0)  -->
<svg version="1.1" id="Layer_1" xmlns="http://www.w3.org/2000/svg" xmlns:xlink="http://www.w3.org/1999/xlink" x="0px" y="0px"
	 viewBox="0 0 512 512" style="enable-background:new 0 0 512 512;" xml:space="preserve">
<style type="text/css">
	.st0{fill:#B7D94F;}
</style>
<g>
	<path class="st0" d="M96,114.2c4.4,0,8-3.6,8-8s-3.6-8-8-8H80c-4.4,0-8,3.6-8,8s3.6,8,8,8H96z"/>
	<path class="st0" d="M48,106.2c0-4.4-3.6-8-8-8H24c-4.4,0-8,3.6-8,8s3.6,8,8,8h16C44.4,114.2,48,110.7,48,106.2z"/>
	<path class="st0" d="M101.7,62.8l-14.3-7.1c-4-2-8.8-0.4-10.7,3.6c-2,4-0.4,8.8,3.6,10.7l14.3,7.1c4,2,8.8,0.4,10.7-3.6
		C107.3,69.5,105.7,64.7,101.7,62.8z"/>
	<path class="st0" d="M51.6,37.8l-14.3-7.1c-4-2-8.8-0.4-10.7,3.6c-2,4-0.4,8.8,3.6,10.7l14.3,7.1c4,2,8.8,0.4,10.7-3.6
		C57.2,44.6,55.6,39.8,51.6,37.8z"/>
	<path class="st0" d="M94.6,134.7l-14.3,7.1c-4,2-5.6,6.8-3.6,10.7v0c2,4,6.8,5.6,10.7,3.6l14.3-7.1c4-2,5.6-6.8,3.6-10.7
		C103.3,134.3,98.5,132.7,94.6,134.7z"/>
	<path class="st0" d="M55.2,163.3c-2-4-6.8-5.6-10.7-3.6l-14.3,7.1c-4,2-5.6,6.8-3.6,10.7c2,4,6.8,5.6,10.7,3.6l14.3-7.1
		C55.6,172,57.2,167.2,55.2,163.3L55.2,163.3z"/>
	<path class="st0" d="M264,426.2c30.9,0,56-25.1,56-56v-32c0-4.4-3.6-8-8-8h-64c-30.9,0-56,25.1-56,56v32c0,4.4,3.6,8,8,8H264z
		 M208,386.2c0-22.1,17.9-40,40-40h56v24c0,22.1-17.9,40-40,40h-56V386.2z"/>
	<path class="st0" d="M488,154.2h-24v-8c0-4.4-3.6-8-8-8h-77.3l-29.9-22.4c-1.4-1-3.1-1.6-4.8-1.6h-14.5l1.4-0.6c3-1.2,5-4.2,5-7.4
		c0-26.5-21.5-48-48-48h-49.4c0,0,0,0,0,0c-4,0.4-7.1,3.7-7.1,7.9c0,4.4,3.4,8,7.8,8.1l48.7,0c15.6,0,29,11.3,31.6,26.8v0
		l-33.1,13.2H233c-9.1,0-17.5,5-21.9,13h0L176,102.1V74.2h39.9l0,0c4.3,0,7.9-3.5,7.9-7.9c0-4.4-3.4-8-7.8-8.1v0h-80
		c-4.4,0-8,3.6-8,8v40c0,4.4,3.6,8,8,8h8c-13.8,0-24.9,11.7-23.9,25.8c0.9,12.2,12.1,22.2,24.4,22.2H160v32c0,4.4,3.6,8,8,8h1.4
		c0,0,0,0,0,0c-2.9,8.3-1.1,17.5,4.8,24c-8.2,9.1-8.2,22.9,0,32c-8.8,9.8-8,25,1.8,33.8c0.6,0.6,1.3,1.1,2,1.6v0
		c-4.8,11.2-9,22.6-12.5,34.2l-0.1,0c-1.1,4.2,1.4,8.5,5.7,9.7c4.1,1.1,8.3-1.1,9.6-5l0.1,0h0c3.5-11.7,7.7-23.1,12.6-34.3l0,0H232
		c13.2,0,24-10.7,24-24c0-5.9-2.2-11.6-6.1-16v0c8.2-9.1,8.2-22.9,0-32v0c8.2-9.1,8.2-22.9,0-32l0,0h31.9l0,0l6.2,24.9
		c5.6,22.5,13.7,44.4,24.1,65.2c10.5,20.9,18.5,43,23.8,65.8c5.4,22.8,8.1,46.1,8.1,69.5v2.7v28c0,8.8-7.2,16-16,16H184
		c-8.8,0-16-7.2-16-16v-28.4v-2.3c0-21.4,2.3-42.7,6.8-63.5l0,0c0.9-4.2-1.9-8.4-6.3-9.3c-4.3-0.9-8.4,1.7-9.4,5.9l0,0
		c0,0,0,0.1,0,0.1c0,0,0,0,0,0l0,0c-4.7,21.9-7.1,44.3-7.1,66.8v2.3v28.4v1.8c0,0,0,0,0.1,0c0.9,16.8,14.9,30.2,31.9,30.2h144
		c16.9,0,30.7-13.1,31.9-29.7c0,0,0.1,0,0.1,0v-2.3v-27.9v-2.8c0-24.6-2.9-49.2-8.5-73.1c-5.7-24-14.1-47.2-25.1-69.2
		c-9.9-19.7-17.5-40.5-22.9-61.9l-3.9-15.7c0,0,0,0,0,0c10.9,7,23.5,10.7,36.4,10.7v0c4.2-0.1,7.6-3.6,7.6-7.9c0-4.4-3.4-8-7.8-8.1
		l0,0c-20.8,0-39.6-12.7-47.3-32.1l-1.1-2.9c-1.1-2.7-3.5-4.6-6.4-5l-49.1-6.1c-4.9-0.7-8.4-5.2-7.7-10.1c0.6-4.5,4.4-7.8,8.9-7.8
		h108.3l29.9,22.4c1.4,1,3.1,1.6,4.8,1.6h72l0,0v112h-16v-80.8l0,0c0-0.3,0-0.5,0-0.8v-0.3c0,0,0,0,0,0c-0.5-3.8-3.8-6.8-7.9-6.8
		c-4.4,0-8,3.4-8.1,7.7c0,0,0,0,0,0v81h-62.3l0,0c-0.1,0-0.2,0-0.2,0h-0.4c0,0,0,0,0,0c-4,0.3-7.2,3.7-7.3,7.9c0,4.3,3.2,7.8,7.3,8
		c0,0,0,0,0,0h0.1c0.1,0,0.2,0,0.3,0l0,0l102.4,0c4.4,0,8-3.6,8-8v-8h24c4.4,0,8-3.6,8-8v-96C496,157.8,492.4,154.2,488,154.2z
		 M205,149.9L205,149.9c1-1.8,1.8-3.7,2.3-5.8h0l1.5,1.1l2.4,3.6c1.9,2.8,3.5,5.7,4.8,8.8v27.7l-0.2,1h-14.8c0,0,0,0,0,0L205,149.9z
		 M144,98.2v-24c0,0,0,0,0,0h16v24H144C144,98.2,144,98.2,144,98.2z M144,146.2c-4.4,0-8-3.6-8-8c0-4.4,3.6-8,8-8h39.8
		c4,0,7.6,2.8,8.2,6.8c0.7,4.9-3.1,9.2-7.9,9.2H144z M176,186.2C176,186.2,176,186.2,176,186.2l0-24c0,0,10.4-0.1,11.5-0.3
		l-2.7,24.3H176z M232,282.2h-39.8c-4,0-7.6-2.8-8.2-6.8c-0.7-4.9,3.1-9.2,7.9-9.2h39.8c4,0,7.6,2.8,8.2,6.8
		C240.6,278,236.8,282.2,232,282.2z M232,250.2h-39.8c-4,0-7.6-2.8-8.2-6.8c-0.7-4.9,3.1-9.2,7.9-9.2h40c4.4,0,8,3.6,8,8
		C240,246.7,236.4,250.2,232,250.2z M232,164.3l42.3,5.3l3.1,2.4c1.9,1.5,2.5,4.2,1.3,6.3l0,0H232V164.3z M232,202.2
		c4.8,0,8.6,4.2,7.9,9.2c-0.6,4-4.2,6.8-8.2,6.8h-39.5c-4,0-7.6-2.8-8.2-6.8c-0.7-4.9,3.1-9.2,7.9-9.2H232z M480,250.2h-16v-80h16
		V250.2z"/>
</g>
</svg>
